P1
#This is a 10x7 room, no walls
17 9 
1 1 1 1 1 1 1 1 1 1 1 1 1 1 1 1 1
1 0 0 0 1 0 0 0 0 0 0 1 0 0 0 0 1
1 0 0 0 1 0 0 0 0 0 0 1 0 0 0 0 1
1 1 1 0 1 0 0 0 0 0 0 1 0 0 0 0 1
1 0 0 0 1 0 0 0 1 0 0 1 0 0 0 0 1
1 0 0 0 1 0 0 0 0 0 0 1 0 0 0 0 1
1 1 1 0 0 0 0 0 0 0 0 1 0 0 0 0 1
1 0 0 0 0 0 0 0 0 0 0 0 0 1 1 1 1
1 1 1 1 1 1 1 1 1 1 1 1 1 1 1 1 1