P1
#This is an example of a room
9 20
1 1 1 1 1 1 1 1 1
1 0 0 0 0 1 0 0 1
1 0 0 0 0 1 0 0 1
1 0 0 0 0 1 0 0 1
1 0 0 0 0 0 0 0 1
1 0 0 0 0 1 0 0 1
1 1 0 1 1 1 0 0 1
1 0 0 0 0 1 0 0 1
1 0 0 0 0 1 0 0 1
1 1 0 1 1 1 1 1 1
1 1 0 1 1 1 1 1 1
1 0 0 0 0 0 0 0 1
1 0 0 0 0 1 0 0 1
1 0 0 0 0 1 0 0 1
1 0 0 0 0 1 0 0 1
1 0 0 0 0 1 0 0 1
1 1 1 1 0 1 0 0 1
1 0 0 0 0 1 0 0 1
1 0 0 0 0 1 0 0 1
1 1 1 1 1 1 1 1 1